<?xml version="1.0" encoding="utf-8"?>
<!-- Generator: Adobe Illustrator 23.0.3, SVG Export Plug-In . SVG Version: 6.00 Build 0)  -->
<svg version="1.1" id="Warstwa_1" xmlns="http://www.w3.org/2000/svg" xmlns:xlink="http://www.w3.org/1999/xlink" x="0px" y="0px"
	 viewBox="0 0 595.3 841.9" style="enable-background:new 0 0 595.3 841.9;" xml:space="preserve">
<style type="text/css">
	.st0{display:none;}
	.st1{display:inline;fill:none;stroke:#000000;stroke-width:3;stroke-miterlimit:10;}
	.st2{display:inline;}
	.st3{fill:#00AEEF;}
</style>
<g class="st0">
	
		<image style="display:inline;overflow:visible;opacity:0.47;enable-background:new    ;" width="1181" height="1181" xlink:href="20220425_091256_0000.png"  transform="matrix(0.5036 0 0 0.5036 0 113.4289)">
	</image>
</g>
<g class="st0">
	<path class="st1" d="M332.6,167.9c135.1,19.9,228.7,144.8,209,279.1S396.4,674.1,261.3,654.3C136.7,636.1,47.5,528.5,49.8,406.5"/>
	<path class="st1" d="M236.6,172.6c29.7-7.6,62.4-9.6,96-4.6"/>
</g>
<g id="Warstwa_3" class="st0">
	<g class="st2">
		<g>
			<path d="M168.4,282.9c13.3-12.6,31.4-21,48.4-27.3c17.5-6.5,35.8-10.6,54.2-13.6c1.6-0.3,4.9-3.2,1.7-2.7
				c-19.8,3.1-39.5,7.6-58.3,14.8c-17.6,6.7-36,15.5-49.8,28.6C162.5,284.5,167.3,283.9,168.4,282.9L168.4,282.9z"/>
		</g>
	</g>
	<g class="st2">
		<g>
			<path d="M264.2,243.6c5.7-0.6,11.8,1.2,17.4,2.5c5.5,1.3,10.7,3,15.9,5.2c9.1,3.9,17.7,8.9,26.9,12.5c0.9,0.4,3.5-0.9,2.3-1.4
				c-10.8-4.3-20.8-10.4-31.7-14.5c-9-3.4-20.6-7-30.3-6C263.2,242,262.2,243.8,264.2,243.6L264.2,243.6z"/>
		</g>
	</g>
	<g class="st2">
		<g>
			<path d="M291,249.1c2.2,1.4,3.7,3.5,4.6,5.9c0.8,1.9,0,4.8-0.7,6.8c-0.3,0.9,2.6,0.5,2.9-0.4c0.7-1.9,1.6-4.8,1-6.7
				c-0.8-2.6-2.9-5.2-5.1-6.6C292.8,247.5,290.2,248.7,291,249.1L291,249.1z"/>
		</g>
	</g>
	<g class="st2">
		<g>
			<path d="M296.7,260.8c-2.8,0.3-5.3,1-7.2,3.3c-1.6,1.9-1.2,4.7,1.3,5.5c4.9,1.7,11-4.3,7.8-8.9c-0.6-0.8-3.4,0.2-2.7,1.1
				c0.8,1.2,1,2.7,0.5,4c-0.6,1.3-2.6,3.2-4.1,2c-1.2-0.9-1-2.4-0.2-3.5c1.1-1.4,2.6-1.7,4.3-1.9
				C297.7,262.3,298.7,260.6,296.7,260.8L296.7,260.8z"/>
		</g>
	</g>
	<g class="st2">
		<g>
			<path d="M295.2,253.6c1.7,2.1,2.5,4.4,3.4,6.9c0.7,2,1.5,5.7,3.3,7.1c1.3,1,3,0.6,3.4,2.8c0.4,2.1-1.7,4.9-3.7,3.2
				c-1.6-1.3-1.4-6.1,2.1-4.6c0.8,0.3,2.9-0.9,2.7-1c-2.6-1.1-7.1-0.3-8.5,2.6c-1.6,3.6,2.5,5.7,5.5,4.9c3.7-0.9,6.6-5.4,3.2-8.2
				c-0.3-0.3-1.1-0.2-1.4-0.4c-1.5-1.2-2.2-3-2.9-4.8c-1.3-3.3-2.1-6.5-4.3-9.3C297.6,252.1,295,253.4,295.2,253.6L295.2,253.6z"/>
		</g>
	</g>
	<g class="st2">
		<g>
			<path d="M325.8,264.3c3.7,0.8,7.5,2.2,11,3.7c2.9,1.3,4.3,4.1,7.2,5.4c3.4,1.6,8.7,0.7,10.9-2.6c2.8-4.2,0.1-7.6-4.1-8.4
				c-4.6-0.9-8.9,1.2-11.4,5c-0.8,1.2,2.1,1,2.7,0.1c1.6-2.5,4.8-4,7.7-3.1c1.8,0.6,4.4,2.9,2.9,4.9c-2.9,0.4-5.7,0.8-8.6,1.2
				c-0.7-0.5-1.3-1.1-1.7-1.9c-0.4-0.5-0.5-0.9-0.9-1.3c-1.5-1.2-4.2-1.4-6-2.1c-2.7-1-5.2-2-8-2.7
				C326.5,262.4,324.1,263.9,325.8,264.3L325.8,264.3z"/>
		</g>
	</g>
	<g class="st2">
		<g>
			<path d="M323.7,262.1c3-1,5.6-2.8,8.6-3.9c3.1-1.1,9.9-5.1,12.8-3.4c0.4,0.3,1.3,2.4,2.1,3c0.9,0.6,2,1.2,3,1.4
				c1.6,0.3,3.1,0.1,4.5-0.7c3.2-1.8,5.5-6.7,1.2-8.7s-8.4,1.7-11,4.6c-0.8,0.9,2.1,0.7,2.7,0c1.7-2.9,4.3-3.4,7.7-1.5
				c0.3,2.4-0.6,3.7-2.6,3.8c-2.4,0.7-4.3-0.5-4.7-3.2c0-0.2-0.4-0.3-0.6-0.4c-3.3-1-7.9,0.5-11,1.8c-2.2,0.9-4.5,1.5-6.8,2.4
				c-2.3,0.8-4,2.6-6.2,3.3C321.7,261.2,322,262.7,323.7,262.1L323.7,262.1z"/>
		</g>
	</g>
	<g class="st2">
		<g>
			<path d="M312.8,258.4c3.8,8,11.4,16.6,19.2,21c2.5,1.4,4.3,1.9,7,1.8c3-0.1,9.2-0.9,7.6,3.8c-0.5,1.6-2.7,3.8-4.6,2.8
				c-1.7-0.9-2.4-5.5-2.2-6.9c0.1-1-2.8-0.5-2.9,0.4c-0.5,3.9,2,10.1,6.9,9.1c4-0.8,8.2-7.3,5.1-10.8c-1.3-1.4-3.2-1.6-5.1-1.3
				c-1.4,0.2-2.8,1.2-4.2,1.4c-2.5,0.4-5-1.3-7-2.6c-6.7-4.5-13.5-12.2-17-19.4C315.3,256.8,312.5,257.7,312.8,258.4L312.8,258.4z"
				/>
		</g>
	</g>
	<g class="st2">
		<g>
			<path d="M323.9,273.1c1,5.3,0.9,13.8,5.7,17c2.1,1.4,4.2,2.2,5.1,4.7c1.2,3.4-0.9,7.4-5.6,4.7c-5.2-3-1.8-8.1,0.9-11
				c0.8-0.9-2.1-0.7-2.7,0c-3.9,4.2-5.5,7.5-0.9,12.1c2.4,2.4,5.6,3,8.5,0.9c4.1-3,3.8-7.8,0.2-11c-0.8-0.7-1.6-1-2.5-1.6
				c-1.9-1.3-2.5-2.1-3.3-4.4c-1.4-3.8-1.7-8.2-2.5-12.2C326.6,271.4,323.7,272.1,323.9,273.1L323.9,273.1z"/>
		</g>
	</g>
	<g class="st2">
		<g>
			<path d="M190.1,266.8c8.3-6.8,15-15.3,19.5-25.1c2.4-5.3,3.9-10.8,5.3-16.4c2-7.7,4.9-14.6,9.1-21.3c1-1.6-1.7-2.2-2.5-1
				c-3.1,5-5.9,10.2-7.7,15.8c-1.9,6-3,12.2-5.2,18.1c-4.2,11.1-11.3,20.8-20.5,28.3C186.6,266.6,188.9,267.8,190.1,266.8
				L190.1,266.8z"/>
		</g>
	</g>
	<g class="st2">
		<g>
			<path d="M197,260.2c1.1-8.7,5.2-17.3,2.6-26c-0.8-2.6-1.8-3.7-0.8-6.2c0.7-1.8,2-3.2,2.8-4.9c1-2.2,1.4-5-0.2-7.1
				c-2.6-3.5-8.2-1.9-10.7,1c-1.1,1.2-3.9,4.6-3.7,6.6c0.3,2.9,5.1,4.9,7.1,6.3c1,0.7,3.6-0.7,2.3-1.6c-2.6-1.8-6.2-3.5-5.1-7.2
				c0.8-2.6,6.5-6,7.8-2.8c2,5-3.8,7.2-4.1,11.4c-0.1,1.8,1.2,3.7,1.7,5.4c0.9,2.8,1,5.8,0.7,8.7c-0.6,5.7-2.6,11.1-3.3,16.8
				C193.9,261.9,196.8,261.4,197,260.2L197,260.2z"/>
		</g>
	</g>
	<g class="st2">
		<g>
			<path d="M223.5,204.4c3.1-2.7,8-4,9.5-8.2c1.1-3.2-0.8-7.1-4-8.2c-3.3-1.1-6.6,1.4-8.6,3.9c-2.9,3.7-2.4,7.5-0.5,11.5
				c0.6,1.3,3.5,0.5,2.9-0.8c-1.2-2.7-2.3-5.3-0.9-8.2c1.2-2.6,4.8-6.1,7.4-3c4.7,5.7-4.4,8.9-7.7,11.7
				C220.1,204.3,222.4,205.4,223.5,204.4L223.5,204.4z"/>
		</g>
	</g>
	<g class="st2">
		<g>
			<path d="M219.9,203.7c0.1,0.2,0.1,0.4,0.2,0.6c0.3,1.1,3.2,0.3,2.9-0.8c-0.1-0.2-0.1-0.4-0.2-0.6
				C222.5,201.8,219.6,202.6,219.9,203.7L219.9,203.7z"/>
		</g>
	</g>
	<g class="st2">
		<g>
			<path d="M220.3,204c0,0.5-0.1,0.9-0.3,1.3c-0.1,0.2,0.1,0.5,0.3,0.6c0.3,0.2,0.7,0.2,1,0.1c0.7-0.1,1.4-0.4,1.6-1.1
				c0.2-0.4,0.3-0.9,0.3-1.3C223.3,202.4,220.4,202.9,220.3,204L220.3,204z"/>
		</g>
	</g>
	<g class="st2">
		<g>
			<path d="M219.9,202.8c-0.4,2-0.9,4-1.5,6c-0.3,0.9,2.6,0.5,2.9-0.4c0.6-2,1.1-4,1.5-6C223,201.4,220.1,201.9,219.9,202.8
				L219.9,202.8z"/>
		</g>
	</g>
	<g class="st2">
		<g>
			<path d="M214.4,226.7c-2-3.5-2.8-7.4-3.9-11.3c-1.2-4.5-2.7-9.3-2.6-14c0.1-5,4.3-7.1,5.1-11.6c0.4-2.3-0.4-5.6-2.6-6.9
				c-8.7-5.3-20,12.8-5.6,14.8c0.7,0.1,3.4-1.1,1.8-1.3c-3.5-0.5-6.3-2.3-6-6.1c0.1-1.4,0.4-2.5,1.3-3.6c2.1-2.6,7.2-2.4,8.1,1
				c1.3,5-4.3,8-4.9,12.7c-0.6,4.3,0.8,9.1,1.9,13.2c1.2,4.7,2.1,9.7,4.5,13.9C212,228.3,214.8,227.3,214.4,226.7L214.4,226.7z"/>
		</g>
	</g>
	<g class="st2">
		<g>
			<path d="M210.9,238.4c1.4-1.7,2.7-3.6,4.4-5.1c3-2.6,6.7-3.4,10.5-4.1c2.8-0.5,5.6-0.8,8.5-1c3.5-0.2,6.6,0.3,9.1,2.7
				c3.1,3,9.2,4.3,12.9,1.6c4-2.8,3.4-11.2-1.9-12.1c-5.3-0.9-10.6,3.1-13.1,7.4c-0.2,0.4,2.4,0.3,2.9-0.5c0.5-1,1.2-2,2-2.7
				c2.1-2.4,5.1-2.6,9-0.7c0.6,1.1,0.8,2.7,0.7,3.9c-0.1,2.8-0.5,3.2-3.3,3.9c-2.6,0.6-4,0.4-6-1.3c-1.9-1.6-2.1-3.1-4.5-3.5
				c-2.6-0.5-5.8,0-8.3,0.2c-5.2,0.4-10.8,1.1-15.7,2.9c-4.2,1.5-7,5.1-9.8,8.6C207.7,239.3,210.5,238.9,210.9,238.4L210.9,238.4z"
				/>
		</g>
	</g>
	<g class="st2">
		<g>
			<path d="M213.7,235.4c3.7-3,6.7-6.4,10.9-8.9c3.7-2.3,7.1-4.8,10.5-7.6c2.3-2,4.4-4,7.2-5.1s4.9,0,7.8,0c2.7,0,5.1-0.7,6.9-2.9
				c2.8-3.5,2.9-12-3-11.9c-6.3,0.1-11.8,6.7-14.1,11.9c-0.7,1.6,2.2,1.6,2.8,0.4c1.4-3.3,3.4-5.9,6.4-8c1.7-1.2,4.7-1.9,6.5,0
				c3,3.3-4.5,8.2-5.3,8.3c-2.3,0.3-4.8-1.2-7.2-0.9c-1.5,0.2-2.7,1.1-3.9,1.9c-5.3,3.7-9.7,8.3-15.2,11.7c-4.6,2.9-8,6.3-12.2,9.7
				C210.2,235.3,212.5,236.4,213.7,235.4L213.7,235.4z"/>
		</g>
	</g>
	<g class="st2">
		<g>
			<path d="M193.2,264.5c1.1,0,3.1-1.6,1.1-1.6C193.2,262.8,191.2,264.5,193.2,264.5L193.2,264.5z"/>
		</g>
	</g>
	<g class="st2">
		<g>
			<path d="M304.8,304.2c-17-11.1-31.1-26.4-49.1-36c-17.8-9.5-36-8.8-55.4-6.3c-0.7,0.1-3.2,1.3-1.3,1c11-1.4,22.3-2.9,33.4-1
				c8.9,1.5,17.3,5.1,25,9.8c16,9.6,29.1,23.2,44.7,33.5C302.7,305.6,305,304.4,304.8,304.2L304.8,304.2z"/>
		</g>
	</g>
	<g class="st2">
		<g>
			<path d="M192.3,264.5c5.4,6.7,11.9,12.3,19.7,16.1c4.9,2.4,10,3.6,15.2,5c5.7,1.5,10.5,4.1,15.4,7.3c8.5,5.5,16.7,9.2,26.8,10.4
				c11.3,1.3,22.8,0.6,34,2.9c1.9,0.4-0.4-3.8-1.8-4.1c-19.5-3.9-39.6,0.3-57.2-11c-3.7-2.4-7.2-4.9-11.2-6.8
				c-4.3-2.1-8.9-2.9-13.5-4.2c-10.2-2.8-19.2-8.6-25.8-16.8C192.1,261,190.4,262.2,192.3,264.5L192.3,264.5z"/>
		</g>
	</g>
	<g class="st2">
		<g>
			<path d="M218.6,275.3c7.8,1.6,15,5.2,21.8,9.2c0.7,0.4,1.3-0.7,0.6-1.1c-6.9-4.1-14.2-7.7-22.1-9.3
				C218.2,273.9,217.8,275.1,218.6,275.3L218.6,275.3z"/>
		</g>
	</g>
	<g class="st2">
		<g>
			<path d="M243.5,285.1c1.1,1.1,3,1.5,4.4,2.1c2.1,0.8,4.3,1.5,6.4,2.2c0.8,0.2,1.1-1,0.3-1.2c-1.7-0.5-3.3-1.1-4.9-1.7
				c-1.5-0.5-4.2-1.1-5.3-2.3C243.8,283.6,242.9,284.5,243.5,285.1L243.5,285.1z"/>
		</g>
	</g>
	<g class="st2">
		<g>
			<path d="M214.4,273c-0.8-0.2-1.6-0.5-2.4-0.7c-0.8-0.2-1.1,1-0.3,1.2s1.6,0.5,2.4,0.7C214.9,274.4,215.2,273.2,214.4,273
				L214.4,273z"/>
		</g>
	</g>
	<g class="st2">
		<g>
			<path d="M209.8,272c-1.3,0.2-2.9-0.5-4.2-0.8c-1.4-0.4-2.8-0.7-4.2-1.1c-0.8-0.2-1.1,1-0.3,1.2c1.6,0.4,3.2,0.8,4.9,1.2
				c1.3,0.3,2.6,0.9,3.9,0.7C210.6,273.1,210.6,271.9,209.8,272L209.8,272z"/>
		</g>
	</g>
	<g class="st2">
		<g>
			<path d="M198.7,268.6c3.8-0.8,7.5-0.2,11.4-0.3c3.3,0,6.4,0.7,9.6,1.4c0.8,0.2,1.1-1,0.3-1.2c-6.8-1.5-14.8-2.7-21.6-1.2
				C197.6,267.6,197.9,268.8,198.7,268.6L198.7,268.6z"/>
		</g>
	</g>
	<g class="st2">
		<g>
			<path d="M222.5,269.7c2.1,0.1,4.2,0.8,6.2,1.2c0.8,0.2,1.1-1,0.3-1.2c-2.1-0.5-4.3-1.1-6.5-1.3
				C221.7,268.4,221.7,269.7,222.5,269.7L222.5,269.7z"/>
		</g>
	</g>
	<g class="st2">
		<g>
			<path d="M230.6,271.6c3.2,1.4,6.8,1.5,10,2.8c0.7,0.3,1.1-0.9,0.3-1.2c-3.1-1.2-6.7-1.3-9.7-2.7
				C230.5,270.2,229.9,271.2,230.6,271.6L230.6,271.6z"/>
		</g>
	</g>
	<g class="st2">
		<g>
			<path d="M243.7,275.5c0.4,0.1,0.8,0.5,1.2,0.6s0.8,0.2,1.1,0.5c0.6,0.6,1.4-0.3,0.9-0.9c-0.4-0.4-0.8-0.6-1.3-0.7
				c-0.5-0.2-0.9-0.6-1.5-0.7C243.3,274,242.9,275.2,243.7,275.5L243.7,275.5z"/>
		</g>
	</g>
	<g class="st2">
		<g>
			<path d="M261.4,291.2c0.5,0,1,0.3,1.5,0.4s1,0.3,1.4,0.3c0.8,0,0.8-1.3,0-1.3c-0.2,0-0.4-0.1-0.6-0.2c-0.3-0.1-0.6-0.1-0.8-0.2
				c-0.5-0.2-0.9-0.4-1.5-0.4C260.6,290,260.6,291.2,261.4,291.2L261.4,291.2z"/>
		</g>
	</g>
	<g class="st2">
		<g>
			<path d="M266.9,292.4c2,1.4,4.6,2,6.8,3c1.9,0.9,4.3,1.5,6.4,1.8c0.8,0.1,1.1-1.1,0.3-1.2c-2.3-0.3-4.8-1.1-6.9-2
				c-2-0.9-4.2-1.3-6-2.6C266.9,290.9,266.3,292,266.9,292.4L266.9,292.4z"/>
		</g>
	</g>
	<g class="st2">
		<g>
			<path d="M280,292.9c-2-1.8-4.5-2.9-6.9-4.3c-2.8-1.7-5.4-3.7-8.2-5.4c-5.2-3.4-10.8-5.3-16.6-7.3c-0.8-0.3-1.1,0.9-0.3,1.2
				c5.7,2,11.2,3.9,16.3,7.2c2.1,1.3,4.1,2.8,6.1,4.1c2.8,1.8,6.2,3.2,8.7,5.5C279.7,294.4,280.6,293.5,280,292.9L280,292.9z"/>
		</g>
	</g>
	<g class="st2">
		<g>
			<path d="M278.2,289.3c-1.2-0.1-2.5-1.6-3.5-2.2c-1.3-0.9-2.6-1.8-3.8-2.9c-2.5-2.2-4.8-4.7-7.2-7c-0.6-0.6-1.5,0.3-0.9,0.9
				c2.8,2.7,5.6,5.8,8.7,8.2c1.8,1.4,4.5,4,6.8,4.3C279,290.6,279,289.4,278.2,289.3L278.2,289.3z"/>
		</g>
	</g>
	<g class="st2">
		<g>
			<path d="M259.8,275c-0.9-0.4-1.5-1.2-2.3-1.6c-0.9-0.4-1.9-0.6-2.8-0.9c-0.8-0.2-1.1,1-0.3,1.2c0.9,0.2,2,0.4,2.8,0.9
				c0.7,0.4,1.3,1.1,2.1,1.5C259.9,276.4,260.6,275.4,259.8,275L259.8,275z"/>
		</g>
	</g>
	<g class="st2">
		<g>
			<path d="M252,271.5c-6.1-2.8-13.1-6.2-20-6.1c-0.8,0-0.8,1.3,0,1.3c6.6,0,13.5,3.3,19.3,6C252.1,272.9,252.8,271.9,252,271.5
				L252,271.5z"/>
		</g>
	</g>
	<g class="st2">
		<g>
			<path d="M228.1,264.9c-1,0-2.2,0.3-3.2,0c-0.8-0.2-1.1,1-0.3,1.2c1.1,0.3,2.4,0.1,3.5,0C228.9,266.1,228.9,264.9,228.1,264.9
				L228.1,264.9z"/>
		</g>
	</g>
	<g class="st2">
		<g>
			<path d="M221.9,265.1c-8-2.6-16.8-2.1-25.1-0.5c-0.8,0.2-0.5,1.4,0.3,1.2c7.9-1.5,16.6-1.9,24.4,0.5
				C222.4,266.6,222.7,265.4,221.9,265.1L221.9,265.1z"/>
		</g>
	</g>
	<g class="st2">
		<g>
			<path d="M266.5,241.6c13.7-7.2,24-18.6,35.3-28.9c6.5-5.9,13.6-11.3,21.3-15.5c6-3.3,12.3-5.9,19.2-6.1c1.7,0,13.9,0,14.5,2.1
				s-16.3,10-19.1,12c-6.4,4.7-11.7,10.5-17.7,15.7c-14.1,12.2-31.8,17-49.6,21.2c-1.7,0.4-1.5,1.2,0.2,0.8
				c16.3-3.8,33.1-8.1,46.9-18.1c7.3-5.3,13.2-12.1,20.2-17.8c7.1-5.8,16.2-8.5,23.1-14.5c0.2-0.2,0.2-0.3-0.1-0.4
				c-8.8-1.7-17.5-3-26.2-0.6c-8.4,2.3-16.1,6.8-23.2,11.7c-16.7,11.7-28.9,28.9-47.1,38.5C263.1,242.2,266,241.8,266.5,241.6
				L266.5,241.6z"/>
		</g>
	</g>
	<g class="st2">
		<g>
			<path d="M271.2,241.4c1.1-0.1,2.3-0.2,3.4-0.2c0.6,0,1.5-0.4,1.6-1.1c0.1-0.7-0.8-0.8-1.3-0.7c-1.1,0.1-2.3,0.2-3.4,0.2
				c-0.6,0-1.5,0.4-1.6,1.1C269.8,241.4,270.8,241.5,271.2,241.4L271.2,241.4z"/>
		</g>
	</g>
	<g class="st2">
		<g>
			<path d="M270.7,240.9c1.9-0.1,3.3-1.4,5.1-0.4c0.9,0.5,3.5-0.8,2.3-1.4c-1.1-0.6-2.3-0.8-3.5-0.7s-2.3,0.8-3.5,0.9
				c-0.5,0-1.6,0.4-1.6,1C269.3,240.9,270.2,240.9,270.7,240.9L270.7,240.9z"/>
		</g>
	</g>
	<g class="st2">
		<g>
			<path d="M273.4,240.9c12.8-2.6,25-8,37.4-11.8c1.7-0.5,1.4-1.6-0.3-1.1c-12.1,3.8-24.2,9.2-36.6,11.7
				C272.7,239.9,271.4,241.4,273.4,240.9L273.4,240.9z"/>
		</g>
	</g>
	<g class="st2">
		<g>
			<path d="M281,240.3c16.1-1.1,31.9-3.5,48.1-3.2c8.1,0.1,16.1,0.7,24.1,2c8.2,1.3,17.3,2.7,24.6,7c1.1,0.6,3.6-0.8,2.2-1.7
				c-6.1-3.7-13.3-5.1-20.3-6.5c-8.9-1.7-17.9-2.6-27-2.9c-17.3-0.5-34.2,1.9-51.4,3.1C279.6,238.4,279,240.5,281,240.3L281,240.3z"
				/>
		</g>
	</g>
	<g class="st2">
		<g>
			<path d="M344.8,238c15.9,4.7,30.8,12.6,43.4,23.4c12.5,10.6,22.7,23.6,32.9,36.4c0.8-0.4,1.7-0.9,2.5-1.3
				c-8.1-4.2-17.2-5.5-25.5-9.1c-7.8-3.4-14.3-9.1-19.9-15.5c-5.8-6.6-10.7-14-16.1-20.9c-4.8-6.1-9.9-12.8-17.9-14.5
				c-1-0.2-3.4,1.3-1.8,1.6c9.1,2,15,11.3,20.3,18.3c5.1,6.9,10.1,14,16.1,20.2c5.3,5.5,11.4,10,18.6,12.9
				c7.9,3.1,16.3,4.5,23.9,8.4c0.6,0.3,3.3-0.3,2.5-1.3C413,282.9,402,269,388.2,258c-12.3-9.9-26.5-17.1-41.6-21.6
				C345.6,236.1,343.2,237.5,344.8,238L344.8,238z"/>
		</g>
	</g>
	<g class="st2">
		<g>
			<path d="M377.2,245.5c7.6-0.4,16.2-1.9,23.6-0.1c6.4,1.6,12.4,5.2,17.8,8.8c10.4,7,19.6,15.6,31.1,20.9c0.7-0.5,1.4-1,2-1.5
				c-5.7-1.8-11.2-0.4-17-0.6c-7-0.3-15.8-1.6-22-5.1c-5.4-3.1-10.4-7.1-15.7-10.4c-6.2-3.9-11.6-8.7-16.9-13.7
				c-0.8-0.7-3.5,0.4-2.7,1.1c4.7,4.4,9.5,8.9,14.9,12.5c5.9,4,11.9,8.4,18.1,11.9c5.5,3.1,12,4,18.2,4.8c7,1,14.7-1.1,21.4,1
				c0.7,0.2,3.3-0.9,2-1.5c-12.9-6-22.9-16.1-35-23.4c-5.3-3.3-11.3-6.3-17.6-7.1c-7.1-0.9-14.8,0.3-21.8,0.6
				C376.2,243.9,375.2,245.6,377.2,245.5L377.2,245.5z"/>
		</g>
	</g>
	<g class="st2">
		<g>
			<path d="M376.2,245.1c1,0.7,2.1,1.3,3.1,2c0.8-0.5,1.5-0.9,2.3-1.4c-0.6-0.4-1.2-0.7-1.8-1.1c-0.6-0.4-3.3,0.5-2.5,1.3
				c0.4,0.4,0.8,0.7,1.3,0.9c0.8,0.4,3.5-0.7,2.3-1.4c-0.4-0.2-0.9-0.5-1.3-0.7c-0.6-0.3-3.3,0.5-2.5,1.3c0.7,0.7,1.8,1.1,2.6,1.7
				c0.9,0.6,1.6,1.4,2.3,2.2c0.6,0.8,3.4-0.3,2.7-1.1c-0.7-0.8-1.4-1.6-2.3-2.2c-0.8-0.6-1.9-1-2.6-1.7c-0.8,0.4-1.7,0.8-2.5,1.3
				c0.4,0.2,0.9,0.5,1.3,0.7c0.8-0.5,1.5-0.9,2.3-1.4c-0.4-0.2-0.7-0.4-1-0.6c-0.8,0.4-1.7,0.8-2.5,1.3c0.6,0.4,1.2,0.7,1.8,1.1
				c0.8,0.5,3.5-0.7,2.3-1.4c-1-0.7-2.1-1.3-3.1-2C377.7,243.2,375,244.4,376.2,245.1L376.2,245.1z"/>
		</g>
	</g>
	<g class="st2">
		<g>
			<path d="M385.5,249c-0.8-0.6-1.5-1.2-2.2-1.9c-0.8,0.5-1.6,0.9-2.5,1.4c1.7,1.4,3.4,2.8,5.1,4.2c0.5,0.5,1.3,0.4,1.9,0.1
				c0.4-0.2,1.3-0.9,0.7-1.4c-1.8-1.5-3.6-3.1-5.5-4.5c-0.8-0.6-3.4,0.6-2.5,1.4c0.9,0.8,1.7,1.5,2.6,2.2
				C384.1,251.3,386.7,250,385.5,249L385.5,249z"/>
		</g>
	</g>
	<g class="st2">
		<g>
			<path d="M347.4,193.5c-9.5,1-18.4,7.8-25.4,13.8c-0.6,0.5,0.3,1.4,0.9,0.9c6.6-5.6,15.6-12.5,24.5-13.4
				C348.2,194.6,348.2,193.4,347.4,193.5L347.4,193.5z"/>
		</g>
	</g>
	<g class="st2">
		<g>
			<path d="M338.3,199c-0.8,1.1-1.9,1.6-3.2,2.2c-1.1,0.5-2.2,1.3-3.4,1.5c-0.8,0.1-0.5,1.3,0.3,1.2c1.3-0.2,2.5-1.1,3.7-1.7
				c1.3-0.6,2.5-1.2,3.4-2.4C339.6,199.2,338.8,198.3,338.3,199L338.3,199z"/>
		</g>
	</g>
	<g class="st2">
		<g>
			<path d="M329,205.1c-5.3,4.3-11,8.1-16.8,11.7c-0.7,0.4-0.1,1.5,0.6,1.1c5.9-3.6,11.7-7.5,17.1-11.9
				C330.5,205.5,329.6,204.6,329,205.1L329,205.1z"/>
		</g>
	</g>
	<g class="st2">
		<g>
			<path d="M310.1,219.2c-9.1,7.2-18.3,13.2-28.7,18.4c-0.7,0.4-0.1,1.4,0.6,1.1c10.5-5.2,19.7-11.3,28.9-18.6
				C311.6,219.6,310.7,218.7,310.1,219.2L310.1,219.2z"/>
		</g>
	</g>
	<g class="st2">
		<g>
			<path d="M319.4,208.2c-7,6-14,11.9-21.5,17.3c-7.7,5.5-15.4,9.1-24.3,12.4c-0.7,0.3-0.4,1.5,0.3,1.2c9-3.4,16.8-6.9,24.6-12.5
				c7.6-5.4,14.7-11.5,21.7-17.5C320.9,208.5,320.1,207.6,319.4,208.2L319.4,208.2z"/>
		</g>
	</g>
	<g class="st2">
		<g>
			<path d="M281.9,235.9c3.4-2.6,6.7-5.2,10-7.8c2.8-2.3,6.1-4.5,8.3-7.5c0.5-0.7-0.6-1.3-1.1-0.6c-2,2.9-5.4,5.1-8.1,7.2
				c-3.2,2.6-6.4,5.1-9.7,7.6C280.6,235.3,281.3,236.4,281.9,235.9L281.9,235.9z"/>
		</g>
	</g>
	<g class="st2">
		<g>
			<path d="M302.2,217.8c0.1-0.8,0.7-1.4,1.3-1.9c0.6-0.5,1.2-1,1.8-1.4c0.7-0.4,0-1.5-0.6-1.1c-1.5,1-3.5,2.4-3.7,4.4
				C300.9,218.6,302.2,218.6,302.2,217.8L302.2,217.8z"/>
		</g>
	</g>
	<g class="st2">
		<g>
			<path d="M323.6,200.5c-3.2,0.4-6.1,3-8.7,4.7c-2.9,1.9-5.7,3.9-8.1,6.5c-0.6,0.6,0.3,1.5,0.9,0.9c2.2-2.3,4.7-4.2,7.4-6
				c2.4-1.6,5.7-4.5,8.6-4.9C324.4,201.6,324.4,200.4,323.6,200.5L323.6,200.5z"/>
		</g>
	</g>
	<g class="st2">
		<g>
			<path d="M398.7,279.7c-0.8,0-1.4-0.5-2-1c-0.7-0.4-1.3-0.9-1.8-1.5s-1.4,0.3-0.9,0.9c0.7,0.7,1.5,1.3,2.3,1.9
				c0.7,0.5,1.5,0.9,2.4,1C399.5,281,399.5,279.8,398.7,279.7L398.7,279.7z"/>
		</g>
	</g>
	<g class="st2">
		<g>
			<path d="M405.3,278.7c-1.3-1.4-2.6-2.7-4-4c-0.6-0.5-1.5,0.3-0.9,0.9c1.4,1.3,2.7,2.6,4,4C404.9,280.2,405.8,279.3,405.3,278.7
				L405.3,278.7z"/>
		</g>
	</g>
	<g class="st2">
		<g>
			<path d="M404.6,280.9c-3.8-3.7-7.5-7.7-11.5-11.1c-3.3-2.7-6.7-4.6-10.1-7.2c-0.6-0.5-1.3,0.6-0.6,1.1c3.5,2.7,7.2,4.7,10.5,7.6
				c3.7,3.3,7.2,7,10.8,10.5C404.3,282.3,405.2,281.4,404.6,280.9L404.6,280.9z"/>
		</g>
	</g>
	<g class="st2">
		<g>
			<path d="M400.2,272.7c-2.5-3.4-5.5-6.2-9-8.6c-0.7-0.5-1.3,0.6-0.6,1.1c3.3,2.2,6.2,4.9,8.6,8.1
				C399.6,274,400.7,273.4,400.2,272.7L400.2,272.7z"/>
		</g>
	</g>
	<g class="st2">
		<g>
			<path d="M389.1,263.2c-4.7-4.1-9.6-7.7-14.8-11c-0.7-0.4-1.3,0.7-0.6,1.1c5.1,3.2,10,6.8,14.6,10.8
				C388.8,264.6,389.7,263.7,389.1,263.2L389.1,263.2z"/>
		</g>
	</g>
	<g class="st2">
		<g>
			<path d="M389.3,275.4c-1.5-2-3.4-3.6-5.3-5.1c-2-1.6-3.7-3.5-5.7-5.1c-0.6-0.5-1.3,0.6-0.6,1.1c1.9,1.5,3.6,3.3,5.5,4.9
				c1.8,1.5,3.7,3,5.1,4.9C388.7,276.7,389.8,276.1,389.3,275.4L389.3,275.4z"/>
		</g>
	</g>
	<g class="st2">
		<g>
			<path d="M376.3,263.1c-1.9-2.2-3.9-4.3-6-6.3c-0.6-0.6-1.5,0.3-0.9,0.9c2.1,2,4.1,4.1,6,6.3C376,264.6,376.8,263.7,376.3,263.1
				L376.3,263.1z"/>
		</g>
	</g>
	<g class="st2">
		<g>
			<path d="M380.4,260.4c-8.6-7.3-16.8-14.6-26.1-20.9c-0.7-0.5-1.3,0.6-0.6,1.1c9.2,6.3,17.3,13.5,25.9,20.7
				C380.1,261.8,381,260.9,380.4,260.4L380.4,260.4z"/>
		</g>
	</g>
	<g class="st2">
		<g>
			<path d="M370.9,249.6c-4.2-2.6-8.4-5.4-12.5-8.2c-0.7-0.5-1.3,0.6-0.6,1.1c4.1,2.9,8.2,5.6,12.5,8.2
				C371,251.1,371.6,250.1,370.9,249.6L370.9,249.6z"/>
		</g>
	</g>
	<g class="st2">
		<g>
			<path d="M366.6,253.3c-2.6-2.7-5.3-5.5-7.9-8.2c-2.1-2.2-4.1-4.5-6.9-5.9c-0.7-0.4-1.4,0.7-0.6,1.1c3,1.5,5.2,4.1,7.4,6.5
				c2.4,2.5,4.7,4.9,7.1,7.4C366.3,254.7,367.1,253.9,366.6,253.3L366.6,253.3z"/>
		</g>
	</g>
	<g class="st2">
		<g>
			<path d="M350.4,240.2c0.8,0,0.8-1.3,0-1.3C349.6,239,349.6,240.2,350.4,240.2L350.4,240.2z"/>
		</g>
	</g>
	<g class="st2">
		<g>
			<path d="M427.1,262.2c-2.7-2.3-5.7-3.8-9.1-4.6c-0.8-0.2-1.1,1-0.3,1.2c3.2,0.8,6.1,2.2,8.6,4.3
				C426.9,263.6,427.8,262.7,427.1,262.2L427.1,262.2z"/>
		</g>
	</g>
	<g class="st2">
		<g>
			<path d="M427.3,267.9c-8.7-3.5-16.7-9-24.2-14.6c-0.6-0.5-1.3,0.6-0.6,1.1c7.6,5.6,15.7,11.2,24.5,14.7
				C427.7,269.4,428.1,268.2,427.3,267.9L427.3,267.9z"/>
		</g>
	</g>
	<g class="st2">
		<g>
			<path d="M408.4,260.4c-2.1-0.5-3.7-1.7-5.5-2.8c-1.7-1.1-3.7-1.8-5.4-2.8c-0.7-0.4-1.3,0.7-0.6,1.1c2,1.2,4.1,2,6,3.2
				c1.7,1.1,3.3,2.1,5.2,2.5C408.9,261.8,409.2,260.6,408.4,260.4L408.4,260.4z"/>
		</g>
	</g>
	<g class="st2">
		<g>
			<path d="M415.5,255.3c-3.9-0.4-7.7-4.1-11-5.9c-2.7-1.5-5.3-2.6-8.4-2.5c-0.8,0-0.8,1.3,0,1.3c7.7-0.2,12.3,7.7,19.4,8.5
				C416.3,256.6,416.3,255.4,415.5,255.3L415.5,255.3z"/>
		</g>
	</g>
	<g class="st2">
		<g>
			<path d="M400,252c-5.5-2.8-11-5.5-16.7-8c-0.7-0.3-1.4,0.7-0.6,1.1c5.6,2.5,11.2,5.2,16.7,8C400.1,253.5,400.8,252.4,400,252
				L400,252z"/>
		</g>
	</g>
	<g class="st2">
		<g>
			<path d="M393.4,246.7c-1.4-0.5-2.5-1.5-3.8-2.2c-0.4-0.2-0.9-0.4-1.4-0.5c-0.6-0.1-1.3,0-1.9-0.3c-0.7-0.4-1.3,0.7-0.6,1.1
				c1.2,0.7,2.5,0.4,3.7,1.1c1.2,0.8,2.4,1.5,3.8,2.1C393.8,248.2,394.1,247,393.4,246.7L393.4,246.7z"/>
		</g>
	</g>
	<g class="st2">
		<g>
			<path d="M394.1,253.4c-2.1-0.9-3.8-2.9-5.6-4.2c-2.4-1.7-4.7-3.4-7.1-5.1c-0.7-0.5-1.3,0.6-0.6,1.1c2.6,1.9,5.2,3.7,7.8,5.6
				c1.7,1.3,3.2,2.9,5.2,3.8C394.5,255,394.8,253.7,394.1,253.4L394.1,253.4z"/>
		</g>
	</g>
</g>
<g id="Warstwa_7" class="st0">
	<g class="st2">
		<g>
			<path d="M457.3,330.2c7.9,6.3-3.5,18.7-6.8,24.7c-3.2,5.8-7.5,12.9-6.8,19.8c0.5,5.2,4.8,8.7,9.7,10c4.2,1.2,8.8,0.2,8.7-4.8
				c-0.1-3.5-2-7.3-6.1-6.3c-5.3,1.3-7.2,8.3-7.8,12.9c-1.7,12.6,3.5,26.1,15.2,32.3c6.9,3.7,15.7,3.8,23.3,2.7
				c6.6-1,11.4-5.3,12.8-11.9c0.3-1.6-2.1-2.2-2.4-0.7c-1.8,8.6-9.1,10.2-16.9,10.5c-6.6,0.2-13.1-0.6-18.6-4.6
				c-5.3-3.8-8.8-9.6-10.3-15.9c-0.7-3.1-1-6.3-0.8-9.5c0.2-2.6,0.7-10,3.6-11.5c1.8,0,3.5,0.1,5.3,0.1c0.8,1.6,0.4,2.8-1.4,3.4
				c-2.5,2.1-4.6,1.1-7.2-0.5c-4.2-2.5-5-6.9-3.9-11.4c1.5-5.8,4.8-11.6,8-16.7c4-6.3,12.7-17.7,4.4-24.2
				C457.8,327.4,456.1,329.2,457.3,330.2L457.3,330.2z"/>
		</g>
	</g>
	<g class="st2">
		<g>
			<path d="M467.4,383.6c0.4-0.7,0.8-1.4,1-2.2c0.1-0.4,0.2-0.8,0.4-1.2c0.1-0.2,0.2-0.9,0.3-1c1.3-0.9,0-2.6-1.2-1.7
				c-1.7,1.2-1.5,3.6-2.6,5.3C464.4,384,466.7,384.7,467.4,383.6L467.4,383.6z"/>
		</g>
	</g>
	<g class="st2">
		<g>
			<path d="M470.4,390.8c0-4.6,2.1-8.8,5.2-12.2c1.1-1.2-1-1.7-1.8-0.8c-3.4,3.8-5.8,8.4-5.8,13.6
				C468.1,392.6,470.4,391.9,470.4,390.8L470.4,390.8z"/>
		</g>
	</g>
	<g class="st2">
		<g>
			<path d="M476.8,396.8c-0.9-7.2,1.8-13.5,6.2-19c0.5-0.6-1.6-2-2.1-1.4c-4.4,5.6-7.2,12-6.3,19.3
				C474.7,396.6,476.9,397.5,476.8,396.8L476.8,396.8z"/>
		</g>
	</g>
	<g class="st2">
		<g>
			<path d="M481.5,399.3c-0.4-7.8,4.4-16.1,10-21.1c0.1-0.1-1.7-1.6-2.2-1.2c-5.7,5.1-10.4,13.5-10,21.3
				C479.4,398.9,481.6,399.6,481.5,399.3L481.5,399.3z"/>
		</g>
	</g>
	<g class="st2">
		<g>
			<path d="M486.3,403.6c1.9-9,5.1-17,12.4-23c0.3-0.2-1.5-1.8-2.1-1.3c-7.3,6-10.4,13.9-12.4,23C484,403,486.2,403.9,486.3,403.6
				L486.3,403.6z"/>
		</g>
	</g>
	<g class="st2">
		<g>
			<path d="M494.6,403.7c-0.4-0.7-0.5-1.6-0.9-2.4c-0.3-0.7-0.7-1.4-1.2-2c-0.6-0.8-3-0.4-2.2,0.7c1.1,1.3,1.2,3,2,4.4
				C492.9,405.2,495.3,404.8,494.6,403.7L494.6,403.7z"/>
		</g>
	</g>
	<g class="st2">
		<g>
			<path d="M501.7,405.4c-0.8-4.8-4.2-9.4-7.5-12.8c-0.5-0.6-3-0.4-2.2,0.4c3.2,3.4,6.4,7.8,7.2,12.5
				C499.4,406.2,501.9,406.3,501.7,405.4L501.7,405.4z"/>
		</g>
	</g>
	<g class="st2">
		<g>
			<path d="M507.8,404.7c-1.9-6.8-5.5-11.8-10.3-16.9c-0.6-0.6-2-1.4-0.8-0.1c4.4,4.6,7.5,9.3,9.3,15.4
				C506.1,403.8,507.8,404.6,507.8,404.7L507.8,404.7z"/>
		</g>
	</g>
	<g class="st2">
		<g>
			<path d="M513.9,400.6c-1.8-3.9-4.2-7.4-6-11.3c-1.5-3.1-2.8-6.1-5.3-8.6c-0.5-0.5-2.4,0-2.4-0.1c2.8,2.7,4,6.2,5.7,9.6
				c1.7,3.5,3.8,6.7,5.5,10.2C511.7,401,513.9,400.6,513.9,400.6L513.9,400.6z"/>
		</g>
	</g>
	<g class="st2">
		<g>
			<path d="M519,397.3c-2.6-4.7-4.9-10.3-8.5-14.4c-1.1-1.2-1.9,0.3-1,1.3c3.4,3.9,5.6,9.3,8.1,13.8
				C518.3,399.4,519.8,398.7,519,397.3L519,397.3z"/>
		</g>
	</g>
	<g class="st2">
		<g>
			<path d="M467.1,376.7c10.2-3.2,22.3-3.1,32.8-0.8c9.4,2.1,18.1,5.6,24.1,13.4c0.7,0.9,2.9-0.3,2.1-1.3
				c-6.5-8.4-16.4-12.4-26.7-14.2c-10.8-2-22.4-2-32.9,1.3C465,375.5,465.6,377.2,467.1,376.7L467.1,376.7z"/>
		</g>
	</g>
	<g class="st2">
		<g>
			<path d="M528.5,385.6c0.2-4.4-4.8-7.7-7.9-9.9c-4.9-3.5-10.4-5.9-16.3-7.1c-13.4-2.7-27.8-2.7-40.7,1.9c-1.3,0.5-0.1,2.6,1.1,2.2
				c10.4-3.7,21.4-4.2,32.3-3c5.6,0.6,11.2,1.6,16.4,3.9c3.6,1.6,13.4,6.5,13.2,11.4C526.3,386.2,528.4,387.2,528.5,385.6
				L528.5,385.6z"/>
		</g>
	</g>
	<g class="st2">
		<g>
			<path d="M532.1,383c-3.3-11.5-19.2-17-29.7-19.2c-11.8-2.5-26.2-0.9-37.6,2.8c-0.9,0.3-2,1.4-0.4,0.9c11.8-3.8,27.3-5.2,39.3-1.8
				c9.6,2.7,23,7.7,26.1,18.2C529.9,384.4,532.3,383.6,532.1,383L532.1,383z"/>
		</g>
	</g>
	<g class="st2">
		<g>
			<path d="M463.7,365.5c10-5.5,24.5-4.9,35.6-3.9c6.5,0.5,12.1,2.9,17.9,5.7c6.6,3.2,12.3,6.4,15.8,13.1c0.5,0.9,2.8,1.3,2.1-0.1
				c-3-5.7-7.3-9.5-12.9-12.4c-6.1-3.1-12.4-6.5-19.2-7.7c-7.2-1.2-14.7-0.9-22-0.5c-6.7,0.3-13.2,1-19.1,4.2
				C460.9,364.5,462.8,366,463.7,365.5L463.7,365.5z"/>
		</g>
	</g>
	<g class="st2">
		<g>
			<path d="M535.4,374.9c-8.6-10.8-19.3-15.4-32.6-18.4c-13-2.9-30.5-3.3-42.4,3.5c-0.4,0.2,1.4,1.7,2,1.4
				c9.8-5.6,22.5-5.8,33.5-4.9c6,0.5,12,2.1,17.7,3.9c8.4,2.7,14.6,7.1,20,14C533.9,374.8,536.1,375.8,535.4,374.9L535.4,374.9z"/>
		</g>
	</g>
	<g class="st2">
		<g>
			<path d="M474.2,351c0-0.8,0-1.7-0.1-2.5c0-0.3-2.3,0.4-2.2,1.2c0.1,0.8,0.1,1.5,0.1,2.3c0,0.4,0.8,0.1,1,0S474.2,351.4,474.2,351
				L474.2,351z"/>
		</g>
	</g>
	<g class="st2">
		<g>
			<path d="M478.8,348.6c0.1-1.6-1.1-3.4-2.2-4.4c-0.4-0.4-1.1-0.5-1.5,0s-0.1,1.3,0.3,1.7c0.4,0.3,0.6,0.7,0.9,1.1
				c0.2,0.3,0.5,0.7,0.5,1.1c0,0.6,0.4,1.3,1,1.5C478.2,349.5,478.7,349.2,478.8,348.6L478.8,348.6z"/>
		</g>
	</g>
	<g class="st2">
		<g>
			<path d="M486,347c0.1-0.9-0.3-1.6-0.9-2.2c-0.7-0.7-1.4-1.3-2.1-2c-0.6-0.6-2.9-0.4-1.9,0.6c0.5,0.5,1.1,1,1.6,1.5s1,0.9,0.9,1.7
				C483.5,347.5,485.9,347.8,486,347L486,347z"/>
		</g>
	</g>
	<g class="st2">
		<g>
			<path d="M493.1,346.6c-0.9-1.5-1.7-3.1-2.6-4.6c-0.6-1-1.2-1.9-2.4-2.3c-0.9-0.3-2.8,1.2-1.7,1.5c1.2,0.4,1.7,1.7,2.3,2.7
				c0.7,1.2,1.4,2.4,2.1,3.7C491.3,348.5,493.6,347.5,493.1,346.6L493.1,346.6z"/>
		</g>
	</g>
	<g class="st2">
		<g>
			<path d="M499,347c-0.7-2-1.3-4.2-2.2-6.1c-0.8-1.7-2.3-2.7-3.7-3.9c-1.3-1.1-1.1,0.5-0.3,1.2c0.7,0.6,1.6,1.1,2.1,1.8
				c0.4,0.6,0.5,1.3,0.8,1.9c0.5,1.4,1,2.9,1.5,4.3C497.4,347,499.5,348.2,499,347L499,347z"/>
		</g>
	</g>
	<g class="st2">
		<g>
			<path d="M506.3,349.6c-1.1-4.1-3.2-7.5-5.8-10.8c-0.4-0.4-2.3-1.7-1.3-0.4c2.4,3,4.2,6.1,5.2,9.8
				C504.6,348.8,506.3,349.7,506.3,349.6L506.3,349.6z"/>
		</g>
	</g>
	<g class="st2">
		<g>
			<path d="M511.2,352.2c1.4-3.8-0.4-6.8-1.7-10.4c-0.7-1.9-1.6-3.7-3.5-4.6c-0.1,0-0.2-0.1-0.2,0v0.1c0.2,0.6,1.9,1.3,1.9,1.4h-0.1
				c-0.6-0.5-1.1-0.9-1.7-1.4c1.4,1.9,1.8,4.2,2.7,6.4c1,2.5,1.6,4.1,0.6,6.8C509.1,351.1,511.2,352.2,511.2,352.2L511.2,352.2z"/>
		</g>
	</g>
	<g class="st2">
		<g>
			<path d="M517.2,354.8c-0.4-4.8-1.2-9.2-4.3-12.9c-1-1.2-0.3,0.9,0.1,1.4c2.3,2.7,2.4,6.5,2.7,9.9
				C515.8,353.7,517.2,355.4,517.2,354.8L517.2,354.8z"/>
		</g>
	</g>
	<g class="st2">
		<g>
			<path d="M522.7,356.9c-0.4-2,0.4-3.9,0-5.9c-0.4-1.8-1.3-3.5-2.1-5.2c-0.3-0.6-2.3-0.7-2.3-0.7c1,1.8,2,3.7,2.2,5.8
				c0.2,1.7-0.5,3.4-0.1,5.1C520.5,356.7,522.7,356.8,522.7,356.9L522.7,356.9z"/>
		</g>
	</g>
	<g class="st2">
		<g>
			<path d="M527.1,360.8c0.3-1.8,1-4.4,0.3-6.2c-0.2-0.5-0.8-0.8-1.3-0.9c-0.1,0-1.2-0.2-1,0.2c0.7,1.7,0,4.2-0.3,6
				C524.7,360.6,527,361.4,527.1,360.8L527.1,360.8z"/>
		</g>
	</g>
	<g class="st2">
		<g>
			<path d="M531.5,365.5c0.1-0.7,0.3-1.4,0.4-2c0.1-0.6-0.4-0.9-0.9-0.8c-0.6,0.1-1.2,0.5-1.4,1.1c-0.1,0.7-0.3,1.4-0.4,2
				c-0.1,0.6,0.4,0.9,0.9,0.8C530.7,366.6,531.4,366.1,531.5,365.5L531.5,365.5z"/>
		</g>
	</g>
	<g class="st2">
		<g>
			<path d="M475.9,354.8c8.2-2.4,17.7-1.9,26.1-0.6c4.1,0.6,8,1.7,11.8,3.2c3.7,1.5,8.8,3.2,11.6,6c1,1,1.2,0.8,0.2-0.2
				c-5.2-5.3-13.9-8.3-20.9-9.9c-9.4-2.2-21.2-2.8-30.6-0.2C474.3,352.9,475.4,354.9,475.9,354.8L475.9,354.8z"/>
		</g>
	</g>
	<g class="st2">
		<g>
			<path d="M514.4,339.1c1.3-4.5,2.1-12,6.4-14.8c6.1-3.9,15.4-1.7,19.1,4.3c5.9,9.5,3.9,24.9-7.7,29c-1.4,0.5-0.1,2.5,1,2.1
				c13.4-4.8,15.9-23.5,7.3-33.8c-4-4.8-10.6-6.5-16.6-5.2c-8.8,1.8-9.6,9.7-11.7,17.2C511.8,339.1,514,340.4,514.4,339.1
				L514.4,339.1z"/>
		</g>
	</g>
</g>
<g id="Warstwa_6" class="st0">
	
		<image style="display:inline;overflow:visible;opacity:0.14;enable-background:new    ;" width="563" height="483" xlink:href="1DD86B5C.jpg"  transform="matrix(0.4423 -0.1557 0.1557 0.4423 -26.5892 189.6814)">
	</image>
</g>
<g id="Warstwa_4">
	<g>
		<g>
			<path d="M246.1,358.3c-3.8,8-6.6,16.4-8.6,24.9c-2.1,8.5-5.1,18.4-4.8,27.2c0.1,1.5,2.7,0.9,2.9-0.3
				c5.9-25.1,18.5-55.9,42.7-68.5c3.9-2,9.9-3.2,11.3,2.4c0.9,3.6-0.1,8.3-1,11.9c-1.7,6.9-5,13.4-8,19.9
				c-5.5,11.7-10.9,23.5-14.3,36c-0.4,1.4,2.4,0.6,2.8,0c1.9-2.8,4.1-5.2,6.7-7.3c2.5-1.9,7.2-5.5,10.3-2.7c1.5,1.3,0.4,5.8,1.7,7.7
				c0.7,1,1.2,1.2,2.3,1.5c3.2,0.8,8.1-0.7,11.3-1.6c5-1.4,9.6-3.6,13.9-6.3c1.7-1.1-0.8-1.9-1.9-1.2c-3.4,2.2-7,4-10.9,5.2
				c-2.7,0.9-7.8,2.9-10.5,2c-4.5-1.4-0.7-9.3-5.3-10.8c-3.3-1.1-7.7,1.7-10.3,3.4c-4.1,2.6-7.4,6-10.1,10c0.9,0,1.9,0,2.8,0
				c4.6-17.2,13.7-32.3,20-48.8c2.2-5.7,5.7-15.1,2.8-21.1c-1.9-4-6.8-4.5-10.6-3.5c-5.9,1.6-11.2,6-15.7,9.9
				c-5.7,5.1-10.7,10.8-14.7,17.3c-8.6,13.8-14.7,29.1-18.4,44.9c1-0.1,1.9-0.2,2.9-0.3c-0.3-8.2,2.5-17.5,4.4-25.4
				c2.1-9,4.9-17.8,8.9-26.2C249.5,357.1,246.6,357.2,246.1,358.3L246.1,358.3z"/>
		</g>
	</g>
	<g>
		<g>
			<path d="M314.3,403.5c1.6-0.4,2.6-1.7,3.8-2.7c1-0.8,2.2-1.7,3.5-0.8c1.7,1.2,0.6,2.4-0.4,3.5c-0.8,0.8-1.6,1.6-2.5,2.3
				c-0.5,0.4-2.3,2.2-3,2c-0.7-0.1-0.1-2.7,0-3.2c0.4-1.3,1.1-2.4,1.9-3.5c0.9-1.2-2.1-1.2-2.7-0.2c-1.2,1.6-4.6,8.1-0.9,9.1
				c1.5,0.4,3.3-0.7,4.5-1.5c1.8-1.1,3.3-2.5,4.8-4c1.1-1,2.4-2.2,2.1-3.8c-0.3-1.5-1.9-2.6-3.3-2.9c-1.5-0.4-3.1-0.1-4.4,0.6
				c-0.9,0.5-1.5,1.2-2.2,1.8c-0.4,0.4-1.3,1.5-1.8,1.6C312,402.2,312.5,404,314.3,403.5L314.3,403.5z"/>
		</g>
	</g>
	<g>
		<g>
			<path d="M319.3,405.7c-1.1,5.9,1,10.4,7.5,8.8c8.2-2,15.6-8.8,23.1-12.6c1.8-0.9,0.1-1.8-1.1-1.2c-4.4,2.2-8.5,4.7-12.7,7.3
				c-2,1.2-4,2.6-6.2,3.6c-2.5,1.2-5.8,2.8-7.5-0.4c-0.9-1.8-0.5-4-0.1-5.8C322.4,404.3,319.4,404.8,319.3,405.7L319.3,405.7z"/>
		</g>
	</g>
	<g>
		<g>
			<path d="M350,401.9c1.1-0.8,3-2.5,4.3-2.8c0.8-0.2,2.1,0,2.9,0.5c1.3,0.8,1,1.7,0.2,2.8c-1.5,2.2-4.2,3.9-6.2,5.6
				c-0.7,0.6-1.7,2.1-2.4,1c-0.8-1.2,0.2-3.2,0.8-4.3c1.3-2.5,3.2-4.3,5.6-5.8c1.7-1-0.8-1.5-1.8-0.9c-3.4,2.1-7.7,6.2-7.7,10.5
				c0,1.7,1,2.7,2.6,2.8c1.9,0.1,3.4-1.1,4.7-2.3c2.2-1.9,4.4-3.7,6.4-5.8c1.1-1.1,2.4-2.7,1.2-4.3c-1.1-1.5-3.8-1.9-5.5-1.7
				c-2.7,0.4-4.9,2.2-7,3.7C346.5,402.1,349,402.6,350,401.9L350,401.9z"/>
		</g>
	</g>
	<g>
		<g>
			<path d="M360.9,400.7c2.3-3.6,3-8,5.2-11.7c1.9-3.2,3.3-6.7,5.7-9.7c2.9-3.6,6.1-6.9,9.5-10c3.4-3,9.4-8.7,14.2-7.8
				c12.2,2.1-4.2,22.2-7.4,25.6c-6.6,7-18.3,13.7-28,13.1c-1.3-0.1-3,1.8-1.1,1.9c10.8,0.7,22.7-5.8,30.4-13.2
				c4.2-4,8.1-9.4,11-14.5c2.2-3.9,3.7-9.8,0.2-13.4c-2.4-2.5-6.9-1.6-9.8-0.5c-4.9,1.7-9.3,5.8-13.1,9.3c-4.3,4-9,8.5-11.6,13.9
				c-1.2,2.5-2.7,4.7-3.9,7.2c-1.6,3.1-2.1,6.6-4,9.6C357.4,401.7,360.3,401.6,360.9,400.7L360.9,400.7z"/>
		</g>
	</g>
	<g>
		<g>
			<path d="M358.4,401.4c-1.1,6.5-7.6,28.8,5.9,25.9c5.2-1.1,7.4-4.8,10.8-8.4c2.3-2.5,5.1-4.7,7.5-7.1c4.2-4.2,8.5-8.6,14.6-9.9
				c1.2-0.3,2.5-1.8,0.5-1.3c-9.9,2.1-15.9,9.7-23,16.2c-1.8,1.7-3.3,3.5-4.9,5.3c-2.2,2.4-6.3,6.3-9.8,1.4c-0.7-1-0.8-3.1-0.9-4.3
				c-1-6.7,1-12,2.2-18.4C361.4,400.1,358.5,400.6,358.4,401.4L358.4,401.4z"/>
		</g>
	</g>
	<g>
		<g>
			<path d="M398.2,401.4L398.2,401.4c0.5-0.5-0.4-0.5-0.6-0.4c-0.6,0.1-1.5,0.2-1.9,0.7l0,0c-0.4,0.4,0.4,0.4,0.7,0.4
				C396.9,402,397.8,401.8,398.2,401.4L398.2,401.4z"/>
		</g>
	</g>
	<g>
		<g>
			<path d="M397.4,401.7c1.6-1,3.2-3.1,5.2-1.7c2,1.5-2.5,4.7-3.6,5.6c-0.6,0.5-1.1,1-1.6,1.5c-0.3,0.2-0.8,1.1-1.3,1
				c-0.3-0.1,0.2-2,0.3-2.1c0.7-2,2.2-3.5,2.7-5.5c0.1-0.6-2.7-0.2-2.9,0.5c-0.4,1.5-5,7.9-2.2,8.9c1,0.3,2.9-0.5,3.8-1
				c1.5-0.8,2.4-2.3,3.7-3.4c1.8-1.5,7.1-5.4,2.6-6.8c-1.5-0.5-3.1-0.5-4.7,0c-1.7,0.6-2.8,2.1-4.3,3
				C394.1,402.4,396.9,402,397.4,401.7L397.4,401.7z"/>
		</g>
	</g>
	<g>
		<g>
			<path d="M403.2,400.6c-1.2,3.3-4.6,9-2.4,12.2c1.8,2.7,5.3,2,7.9,1.1c4.6-1.6,7.9-4.4,12.1-6.8c2.4-1.4,6.6-4.4,9.4-4.6
				c1.9-1.2,2.3-0.8,1.2,1.1c-0.1,0.6-0.3,1.2-0.4,1.7c-0.3,1.8-0.4,3.6-0.5,5.4c-0.1,1.1,2.8,0.5,2.9-0.4c0.3-3.3,0.7-6.5,1.3-9.8
				c0.2-1-2.7-0.5-2.9,0.4c-0.6,3.2-1.1,6.5-1.3,9.8c1-0.1,1.9-0.3,2.9-0.4c0.1-1.5,0.2-3,0.4-4.5c0.1-1,1.3-3.4,1.1-4.3
				c-0.2-0.6,0.2-0.8-0.4-1.3c-1.2-1.1-5.2,1-6.3,1.5c-4.3,2-8.6,4.3-12.5,7c-1.6,1.1-3.1,2.5-5,3c-1.3,0.9-2.7,1-4.2,0.3
				c-2.9,0.7-4-0.5-3.1-3.5c0.3-2.8,1.9-5.7,2.8-8.3C406.4,399.4,403.6,399.7,403.2,400.6L403.2,400.6z"/>
		</g>
	</g>
	<g>
		<g>
			<path d="M435,401.2c0.4-14.9,5.8-29,11.5-42.6c0.6-1.5-2.3-1.4-2.8-0.3c-5.8,13.8-11.3,28-11.7,43.1
				C432,402.9,435,402.4,435,401.2L435,401.2z"/>
		</g>
	</g>
	<g>
		<g>
			<path d="M433.5,410.4c-0.1-3.1,0-6.1,0.4-9.1c0.2-1.4-2.7-1.1-2.9,0.2c-0.4,3-0.6,6.1-0.4,9.1
				C430.6,412.1,433.5,411.7,433.5,410.4L433.5,410.4z"/>
		</g>
	</g>
	<g>
		<g>
			<path d="M433.9,402c-0.1-3.6,1.1-7.1,1.9-10.5c0.3-1.1-2.6-0.6-2.9,0.4c-0.9,3.7-2,7.2-1.9,10.9C431,403.7,433.9,403.1,433.9,402
				L433.9,402z"/>
		</g>
	</g>
	<g>
		<g>
			<path d="M434.6,401.3c4.7-11.2,9.5-22.5,15.7-33c3.3-5.6,7.1-10.9,11.5-15.8c4.2-4.7,14.6-15.5,21.9-12.8
				c7.2,2.6,2.8,13.8,1.3,18.9c-1.8,6.2-4.2,12.2-6.8,18.2c-5.2,12-11.1,23.6-15.7,35.8c-0.3,0.9,2.5,0,2.8-0.3
				c1.8-1.9,3.6-3.9,5.5-5.7c1.5-1.4,3-2.7,4.7-3.8c1.6-1,6.5-3,8.1-1.6c0.3,0.3,0.9,4.1,1.2,4.6c0.3,0.8,0.7,1.8,1.3,2.5
				c1,1.3,2.2,1.9,3.8,2.1c8.2,1.1,18.7-4.2,25.4-8.2c1.7-1-0.9-1-1.7-0.5c-3.1,1.8-6.2,3.5-9.6,4.7c-3.2,1.2-11.1,4.4-14.3,1.9
				c-3.1-2.5-1.4-9.1-5.3-9.9c-3-0.6-7.4,1.8-9.9,3.3c-4.6,2.7-8.3,6.7-11.8,10.6c0.9-0.1,1.8-0.2,2.8-0.3
				c5.8-15.5,13.9-30.1,19.7-45.6c2.8-7.4,12.3-30.7-4-28.2c-12.4,1.9-22.3,13.8-29,23.4c-8.6,12.3-14.5,26.3-20.3,40.1
				C431.5,402.4,434.3,402.1,434.6,401.3L434.6,401.3z"/>
		</g>
	</g>
</g>
<g id="Warstwa_8">
	<g>
		<g>
			<path d="M289.8,468.4h0.8v4.7h6.4v-4.7h0.8v10.7h-0.8v-5.3h-6.4v5.3h-0.8V468.4z"/>
			<path d="M302.1,475.4l-1.4,3.7h-0.8l3.9-10.7h1l4.1,10.7h-0.9l-1.4-3.7H302.1z M306.3,474.7c-1.2-3.2-1.8-4.8-2-5.4l0,0
				c-0.2,0.8-1,2.7-1.9,5.4H306.3z"/>
			<path d="M310.8,479.2v-10.7h1.2c1.7,2.6,5.6,8.5,6.3,9.8l0,0c-0.1-1.5-0.1-3.1-0.1-4.8v-4.8h0.8v10.7h-1.1
				c-1.6-2.5-5.6-8.7-6.4-9.9l0,0c0.1,1.4,0.1,3,0.1,4.9v5L310.8,479.2L310.8,479.2z"/>
			<path d="M322.1,468.4h3.5c2.9,0,5,2,5,5.2s-2,5.5-5,5.5h-3.5V468.4z M322.9,478.4h2.6c2.8,0,4.2-2,4.2-4.7c0-2.3-1.3-4.5-4.2-4.5
				h-2.6V478.4z"/>
			<path d="M342.2,474.2c0-2.1,0-4.1,0.1-5.2h-0.1c-0.4,1.5-2.6,6.7-3.9,10.1h-0.8c-1-2.6-3.3-8.5-3.8-10.2l0,0
				c0.1,1.2,0.1,3.7,0.1,5.6v4.6H333v-10.7h1.2c1.5,3.7,3.3,8.5,3.7,9.7l0,0c0.2-0.8,2.4-6.1,3.9-9.7h1.2v10.7h-0.8L342.2,474.2
				L342.2,474.2z"/>
			<path d="M347.1,475.4l-1.4,3.7H345l3.9-10.7h1l4.1,10.7h-0.9l-1.4-3.7H347.1z M351.4,474.7c-1.2-3.2-1.8-4.8-2-5.4l0,0
				c-0.2,0.8-1,2.7-1.9,5.4H351.4z"/>
			<path d="M355.9,468.4h3.5c2.9,0,5,2,5,5.2s-2,5.5-5,5.5h-3.5V468.4z M356.7,478.4h2.6c2.8,0,4.2-2,4.2-4.7c0-2.3-1.3-4.5-4.2-4.5
				h-2.6V478.4z"/>
			<path d="M373,473.9h-5.5v4.5h6l-0.2,0.8h-6.7v-10.7h6.6v0.7h-5.7v3.9h5.5V473.9z"/>
			<path d="M379.6,468.4h3.7c2,0,3.1,1,3.1,2.7c0,1.3-0.7,2.1-1.7,2.3c0.8,0.2,2,1,2,2.7c0,2.2-1.6,3.1-3.5,3.1h-3.8L379.6,468.4
				L379.6,468.4z M383.1,473c1.9,0,2.6-0.7,2.6-1.9c0-1-0.7-1.9-2.3-1.9h-3v3.9H383.1z M380.4,478.4h3c1.4,0,2.6-0.7,2.6-2.3
				c0-1.4-0.9-2.3-3.1-2.3h-2.6L380.4,478.4L380.4,478.4z"/>
			<path d="M391.6,479.2v-4c0-0.1,0-0.2-0.1-0.2l-3.8-6.4h1c1,1.9,2.9,5,3.4,5.8c0.5-0.8,2.3-3.9,3.5-5.8h0.9l-4,6.5
				c0,0.1-0.1,0.2-0.1,0.2v3.9H391.6z"/>
			<path d="M411.2,474.2c0-2.1,0-4.1,0.1-5.2h-0.1c-0.4,1.5-2.6,6.7-3.9,10.1h-0.8c-1-2.6-3.3-8.5-3.8-10.2l0,0
				c0.1,1.2,0.1,3.7,0.1,5.6v4.6H402v-10.7h1.2c1.5,3.7,3.3,8.5,3.7,9.7l0,0c0.2-0.8,2.4-6.1,3.9-9.7h1.2v10.7h-0.8L411.2,474.2
				L411.2,474.2z"/>
			<path d="M416.2,475.4l-1.4,3.7H414l3.9-10.7h1l4.1,10.7h-0.9l-1.4-3.7H416.2z M420.4,474.7c-1.2-3.2-1.8-4.8-2-5.4l0,0
				c-0.2,0.8-1,2.7-1.9,5.4H420.4z"/>
			<path d="M424.9,468.4h3.5c2.9,0,5,2,5,5.2s-2,5.5-5,5.5h-3.5V468.4z M425.7,478.4h2.6c2.8,0,4.2-2,4.2-4.7c0-2.3-1.3-4.5-4.2-4.5
				h-2.6V478.4z"/>
			<path d="M436.9,475.4l-1.4,3.7h-0.8l3.9-10.7h1l4.1,10.7h-0.9l-1.4-3.7H436.9z M441.1,474.7c-1.2-3.2-1.8-4.8-2-5.4l0,0
				c-0.2,0.8-1,2.7-1.9,5.4H441.1z"/>
			<path d="M458.9,474.2c0-2.1,0-4.1,0.1-5.2h-0.1c-0.4,1.5-2.6,6.7-3.9,10.1h-0.8c-1-2.6-3.3-8.5-3.8-10.2l0,0
				c0.1,1.2,0.1,3.7,0.1,5.6v4.6h-0.8v-10.7h1.2c1.5,3.7,3.3,8.5,3.7,9.7l0,0c0.2-0.8,2.4-6.1,3.9-9.7h1.2v10.7h-0.8L458.9,474.2
				L458.9,474.2z"/>
			<path d="M462.1,479.2v-2h0.8v2H462.1z"/>
		</g>
	</g>
</g>
<g id="Warstwa_9">
	<path d="M112.8,438.7c-2.6-4.8-5.4-9.5-7.6-14.4c-4-8.9-6.1-18.3-7-28c-0.1-0.6-0.2-1.2-0.5-2.5c-2.2,5.9-3.2,11.4-3.1,17
		c0.1,10.7,3,20.5,9.1,29.2c2,2.8,2,2.8-0.4,5.4c-0.3,0.3-0.7,0.6-1,1c-14.6-15.8-19.6-47.5-0.2-71c21-25.4,53.7-23.5,71.3-9.9
		c-1.3,1.2-2.6,2.3-4.1,3.3c-14.8-10.4-37.5-10.3-52.1,0c-0.6,0.4-0.9,1.4-1.4,2.1c1.1,0.3,1.6,0.1,2.1,0c10.4-3.4,21-5.4,31.9-4.7
		c6.5,0.4,12.9,1.8,19.4,2.8c-1,1.4-2,3-3.2,4.2c-0.4,0.4-1.4,0.2-2.1,0.1c-15.3-3.4-30.4-2-45.2,2.9c-3.4,1.1-3.4,1.2-2.7,5.3
		c15.3-3.5,30.6-3.5,46,1c1.9,0.7,3.6,1.2,5.2,1.8c7.4,3,14.4,6.8,21.1,12.2c1-4.8-1.9-7.8-3.5-11.3c-1.7-3.7-4.5-6.3-8.8-7.6
		c1.9-2.2,3.4-3.9,5.1-5.9c12.8,13.8,18.3,29.9,15.3,48.6s-13.4,32.1-30.1,41.1c6.9,3,13.2,3.4,19.7,0.7c7.3-3,14.6-6.1,22.1-8.6
		c5-1.7,10.3-2.4,15.5-0.8c1.6,0.5,3.2,1.5,5.2,2.4c-1.3,1.4-2.2,2.4-3.2,3.4c-0.3,0.3-0.9,0.4-1.2,0.2c-5.3-2.8-10.7-1.5-15.8,0.1
		c-6.3,2-12.6,4.4-18.6,7.2c-9.7,4.6-19,3.9-28.2-1.1c-1.1-0.6-2.7-0.8-3.8-0.5c-16.6,4.4-32,1.7-46.1-8.5c-0.7-0.5-1.3-1.1-2.2-1.8
		c1.1-1.3,2.1-2.6,3.1-3.8c6.5,3.4,11.9,9.6,20.2,7.4c-6.2-4.2-11.6-9.3-16.8-15C114.8,441.3,113.8,440,112.8,438.7 M156.5,444
		c6.4-5,12-10.7,17-17.6c-2.4-1.3-4.6-2.4-6.4-3.4c-2.2,4.7-4.2,9.1-6.5,13.4c-1.4,2.6-3.2,4.9-5,7.4c-0.1,0.2-0.1,0.3-0.2,0.5
		C155.7,444.2,156,444.1,156.5,444 M141.7,447.2c-5.9-3.7-10.9-8.3-15.2-13.8c-10.8-13.8-14.9-30.1-15.7-47.4c-0.2-3.8,0-7.7,0-11.5
		c-0.2-0.1-0.5-0.2-0.7-0.3c-2.3,2.8-4.6,5.6-6.7,8.4c-0.4,0.6-0.6,1.5-0.6,2.2c0.1,13.4,2.2,26.4,7.7,38.7
		c5.9,13.1,14.7,23.6,27.3,30.5c0.7,0.4,1.7,0.8,2.3,0.6c2.5-1.2,4.8-2.6,7.5-4.1C145.3,449.3,143.6,448.3,141.7,447.2 M116,388.7
		c0.2,1.6,0.3,3.3,0.6,5.3c23.9-1.9,46.3,2.5,66.6,15.8c0.3-0.4,0.5-0.6,0.6-0.8c0.7-1.6,1.2-3.3,2-4.8c0.9-1.8,0.4-2.8-1.1-3.9
		c-20.4-15.5-43-18.9-67.3-13.6C116.8,386.8,116.4,387.8,116,388.7 M119.8,399.1c-0.7,0.1-1.5,0.2-2.5,0.3c0.5,2.5,1,4.7,1.5,6.9
		c20.9-0.5,39.8,5.7,57.9,15.8c1.4-2.4,2.8-4.8,4.3-7.3c-2.1-1.3-3.9-2.5-5.8-3.5C158.1,401.6,139.7,398,119.8,399.1 M185.9,423.7
		c1.8-3.8,4-7.6,5.4-11.6c0.8-2.3,0.4-5,0.6-7.5c-0.3,0-0.5-0.1-0.8-0.1c-4.5,12.5-11.2,23.5-20.1,33.1
		c-8.9,9.6-19.3,17.1-30.9,23.2c1.5,0.1,3,0.2,4.2-0.4C161.6,452.5,175.7,440.7,185.9,423.7 M147.9,435.7c-1.5,2.1-3,4.2-4.5,6.3
		c3.5,3.3,4.3,3.3,7.2-0.3c0.5-0.7,1.1-1.3,1.6-2c3.9-5.2,7.4-10.8,9.1-17.3c0.2-0.7-0.1-2-0.6-2.2c-1.6-0.9-3.4-1.4-4.6-1.9
		C153.3,424.2,150.7,429.8,147.9,435.7 M139.4,425.5c-0.8,3.1-1.4,6.2-2.4,9.2c-0.7,2-0.1,3.2,1.9,4.1c5.7-6,9.2-13.3,11.2-21.4
		c0.1-0.4-0.7-1.3-1.2-1.5c-2.1-0.7-4.2-1.3-6.6-1.9C141.4,417.8,140.4,421.5,139.4,425.5 M134.1,425.3c1-4,2-8.1,3.1-12.4
		c-2.2-0.3-4.2-0.6-6.2-0.9c-1.3-0.2-1.9,0.4-2.1,1.6c-0.6,2.6-0.9,5.2-1.7,7.6c-1.5,5.2,2.2,7.7,5,11.4
		C132.9,429.9,133.5,427.8,134.1,425.3 M184.4,437.9c0.8-1.5,1.7-3.1,2.5-4.6c-0.2-0.1-0.4-0.3-0.6-0.4
		c-6.3,8.8-13.9,16.3-22.4,22.9C172.6,452.4,179,446.1,184.4,437.9 M122.3,416.7c0.1,0.1,0.1,0.1,0.2,0.1c0,0,0.1,0,0.2-0.1
		c0.5-1.6,1-3.3,1.5-5.1c-1.3,0-2.4,0-3.8,0C121,413.3,121.6,414.8,122.3,416.7z"/>
	<path class="st3" d="M170.8,386.6c-1.7-0.4-3.3-0.9-5.1-1.6c6.3-7.5,12.7-15,19.2-22.3c1.1-1.2,2.8-1.8,4.3-2.6
		c1.6-0.9,3.3-1.5,4.7-2.5c1-0.7,1.5-2.1,2.5-3.6c-1.7-0.1-2.5-0.1-3.6-0.2c0.6-0.7,1-1.3,1.5-1.9c1.1-1.4,2.5-2.2,4-0.8
		c1.4,1.3,1.1,2.8-0.2,4.2c-3,3.4-6,6.9-9,10.3C183.1,372.5,177,379.5,170.8,386.6z"/>
	<path class="st3" d="M116.2,441.4c1.1,1.1,2.1,2.4,3.2,3.9c-5.7,6.7-11.4,13.3-17.1,19.9c-0.1,0.1-0.2,0.2-0.3,0.4
		c-1.6,1.8-3.1,2.1-4.3,0.8c-1.4-1.5-0.6-2.9,0.5-4.2c3.2-3.7,6.5-7.5,9.7-11.2C110.6,447.8,113.4,444.7,116.2,441.4z"/>
</g>
<g>
	<g>
		<path d="M280.1,460.9v-26.7h1.8l8.5,20.8v-20.8h2.2v26.7h-1.8l-8.6-21v21H280.1z"/>
		<path d="M297,439.2V436h2.4v3.3H297z M297,460.9v-19.1h2.4v19.1H297z"/>
		<path d="M308,461.2c-0.9,0-1.6-0.2-2.1-0.5c-0.5-0.4-0.8-0.9-1-1.5c-0.2-0.6-0.3-1.3-0.3-2.2v-13.5h-2.3v-1.6h2.3V436h2.4v5.9h3.2
			v1.6H307v13.3c0,0.9,0.1,1.6,0.3,2c0.2,0.4,0.7,0.6,1.4,0.6c0.2,0,0.4,0,0.7,0c0.2,0,0.5-0.1,0.7-0.1v1.8c-0.3,0.1-0.7,0.1-1,0.1
			C308.7,461.2,308.3,461.2,308,461.2z"/>
		<path d="M312.7,460.9v-26.7h2.4v17l6.4-9.3h2.5l-4.8,7.4l4.6,11.7h-2.4l-4-10.4l-2.2,3.1v7.2H312.7z"/>
		<path d="M329.2,461.2c-0.7,0-1.4-0.2-2-0.6s-1-0.9-1.4-1.5c-0.3-0.6-0.5-1.4-0.5-2.1c0-1,0.1-1.8,0.4-2.5s0.7-1.3,1.3-1.8
			c0.6-0.5,1.4-1.1,2.4-1.6c1-0.5,2.2-1.1,3.6-1.7V448c0-1.2-0.1-2.1-0.2-2.8s-0.4-1.1-0.7-1.4c-0.3-0.3-0.8-0.4-1.4-0.4
			c-0.5,0-1,0.1-1.4,0.3c-0.4,0.2-0.7,0.5-1,1c-0.2,0.5-0.4,1.1-0.4,2v0.7l-2.4,0c0-1.9,0.4-3.4,1.2-4.3c0.8-0.9,2.1-1.4,3.9-1.4
			c1.7,0,2.9,0.5,3.6,1.5c0.7,1,1.1,2.6,1.1,4.8v9.3c0,0.3,0,0.8,0,1.3c0,0.5,0,1,0.1,1.5c0,0.5,0.1,0.8,0.1,1.1h-2.1
			c-0.1-0.4-0.1-0.9-0.2-1.4c-0.1-0.5-0.1-0.9-0.1-1.2c-0.3,0.8-0.7,1.5-1.4,2C331.1,460.9,330.2,461.2,329.2,461.2z M330,459.2
			c0.5,0,0.9-0.1,1.3-0.3c0.4-0.2,0.7-0.5,1.1-0.9c0.3-0.4,0.6-0.7,0.7-1.1V451c-0.9,0.5-1.8,1-2.4,1.3c-0.7,0.4-1.2,0.8-1.6,1.1
			c-0.4,0.4-0.7,0.8-0.9,1.3c-0.2,0.5-0.3,1-0.3,1.7c0,1,0.2,1.7,0.6,2.2C328.9,459,329.4,459.2,330,459.2z M334.8,467.9
			c-0.5,0-1,0-1.5-0.1c-0.5-0.1-0.9-0.3-1.2-0.5c-0.4-0.2-0.6-0.5-0.8-0.8c-0.2-0.4-0.3-0.8-0.3-1.3c0-0.6,0.1-1.2,0.4-1.7
			c0.3-0.6,0.7-1.1,1.1-1.5s0.9-0.8,1.5-1.1h1.3c-0.4,0.4-0.8,0.8-1.2,1.3c-0.4,0.4-0.7,0.9-0.9,1.4c-0.2,0.5-0.3,0.9-0.3,1.4
			c0,0.7,0.2,1.1,0.7,1.4c0.5,0.2,1.1,0.4,1.7,0.4c0.2,0,0.3,0,0.4,0c0.1,0,0.3,0,0.4,0l-0.4,1.3c-0.1,0-0.3,0-0.4,0
			C335.2,467.9,335,467.9,334.8,467.9z"/>
		<path d="M346,439.2V436h2.4v3.3H346z M346,460.9v-19.1h2.4v19.1H346z"/>
		<path d="M365.4,461.3c-1.5,0-2.7-0.3-3.6-0.9c-1-0.6-1.7-1.5-2.2-2.5c-0.5-1.1-0.8-2.4-0.9-3.8l2.2-0.7c0.1,1.1,0.3,2.1,0.6,3
			c0.3,0.9,0.7,1.6,1.4,2.1s1.5,0.8,2.5,0.8c1.2,0,2.1-0.3,2.8-0.9s1-1.6,1-2.9c0-1.2-0.3-2.2-0.9-3.1c-0.6-0.9-1.4-1.8-2.4-2.7
			l-4.7-4.5c-0.8-0.8-1.5-1.7-1.8-2.5c-0.4-0.9-0.6-1.8-0.6-2.9c0-1.8,0.5-3.3,1.7-4.3c1.1-1,2.6-1.5,4.4-1.5c0.9,0,1.8,0.1,2.6,0.4
			s1.4,0.6,1.9,1.2c0.5,0.5,1,1.2,1.3,2.1c0.3,0.9,0.5,1.9,0.6,3.1l-2.1,0.6c-0.1-1.1-0.3-2.1-0.5-2.9c-0.3-0.8-0.7-1.4-1.3-1.8
			s-1.4-0.6-2.4-0.6c-1.1,0-2,0.3-2.7,0.9c-0.7,0.6-1.1,1.5-1.1,2.7c0,0.7,0.1,1.4,0.4,2s0.8,1.2,1.5,1.9l4.7,4.5
			c1.1,1,2,2.1,2.7,3.3c0.8,1.2,1.2,2.6,1.2,4.1c0,1.3-0.3,2.5-0.8,3.4c-0.5,0.9-1.2,1.6-2.2,2C367.7,461,366.6,461.3,365.4,461.3z"
			/>
		<path d="M373.6,460.9v-1.7l6.5-15.5h-5.8v-1.8h8.3v1.5l-6.5,15.8h6.3v1.8H373.6z"/>
		<path d="M384.8,465.7v-1.9c1.1,0,1.9-0.1,2.5-0.2c0.6-0.2,0.9-0.4,1.1-0.7c0.2-0.3,0.3-0.6,0.3-1c0-0.4-0.1-0.8-0.2-1.4
			c-0.1-0.6-0.3-1.2-0.4-1.8l-3.9-16.8h2.4l3.3,16.2l3.2-16.2h2.4l-4.6,20.4c-0.2,0.8-0.5,1.5-0.9,2s-1,0.9-1.8,1.1
			c-0.7,0.2-1.6,0.3-2.7,0.3H384.8z"/>
		<path d="M402.2,461.2c-1.6,0-2.8-0.6-3.5-1.8s-1.1-3.3-1.1-6.1v-3.5c0-1.7,0.1-3.1,0.4-4.3s0.7-2.2,1.3-2.8c0.6-0.7,1.6-1,2.8-1
			c0.7,0,1.4,0.2,2,0.5s1,0.7,1.4,1.1v-9h2.4v26.7h-2.4v-1.4c-0.4,0.4-0.8,0.8-1.4,1.1C403.5,461.1,402.9,461.2,402.2,461.2z
			 M402.7,459.4c0.5,0,1-0.1,1.5-0.4c0.5-0.3,0.9-0.6,1.3-0.9v-13.3c-0.3-0.3-0.7-0.6-1.2-0.9c-0.5-0.3-1-0.4-1.6-0.4
			c-1.1,0-1.8,0.5-2.1,1.4c-0.3,0.9-0.5,2.3-0.5,4.1v4.5c0,1.3,0.1,2.4,0.2,3.2c0.1,0.9,0.4,1.5,0.8,2
			C401.4,459.1,401.9,459.4,402.7,459.4z"/>
		<path d="M416.4,461.2c-1.2,0-2.2-0.2-2.9-0.7c-0.8-0.5-1.3-1.3-1.7-2.4c-0.4-1.1-0.5-2.6-0.5-4.4V449c0-1.9,0.2-3.4,0.6-4.4
			c0.4-1.1,0.9-1.8,1.7-2.3s1.7-0.7,2.9-0.7c1.4,0,2.4,0.3,3.1,0.9c0.7,0.6,1.2,1.4,1.5,2.6c0.3,1.2,0.4,2.6,0.4,4.4v1.7h-7.7v3.3
			c0,1.2,0.1,2.2,0.3,2.9c0.2,0.7,0.5,1.2,0.9,1.5c0.4,0.3,0.9,0.5,1.6,0.5c0.5,0,0.9-0.1,1.3-0.3c0.4-0.2,0.7-0.5,0.9-1.1
			c0.2-0.5,0.3-1.3,0.3-2.3v-1.3h2.3v1.1c0,1.7-0.4,3.1-1.1,4.2C419.5,460.7,418.2,461.2,416.4,461.2z M413.6,449.8h5.3v-1.6
			c0-1-0.1-1.9-0.2-2.6c-0.1-0.7-0.3-1.3-0.7-1.7c-0.4-0.4-0.9-0.6-1.7-0.6c-0.7,0-1.2,0.1-1.6,0.4s-0.7,0.8-0.9,1.5
			c-0.2,0.7-0.3,1.8-0.3,3.2V449.8z"/>
		<path d="M425.8,460.9v-14.7l-2.1,1.1v-2l2.1-1.1v-10.1h2.4v8.9l2-1.1v2l-2,1.1v15.8H425.8z"/>
		<path d="M433,460.9v-26.7h2.4v17l6.4-9.3h2.5l-4.8,7.4l4.6,11.7h-2.4l-4-10.4l-2.2,3.1v7.2H433z"/>
		<path d="M446.5,439.2V436h2.4v3.3H446.5z M446.5,460.9v-19.1h2.4v19.1H446.5z"/>
		<path d="M457.7,461.2c-1.2,0-2.2-0.2-2.9-0.7c-0.8-0.5-1.3-1.3-1.7-2.4c-0.4-1.1-0.5-2.6-0.5-4.4V449c0-1.9,0.2-3.4,0.6-4.4
			c0.4-1.1,0.9-1.8,1.7-2.3s1.7-0.7,2.9-0.7c1.4,0,2.4,0.3,3.1,0.9c0.7,0.6,1.2,1.4,1.5,2.6c0.3,1.2,0.4,2.6,0.4,4.4v1.7H455v3.3
			c0,1.2,0.1,2.2,0.3,2.9c0.2,0.7,0.5,1.2,0.9,1.5c0.4,0.3,0.9,0.5,1.6,0.5c0.5,0,0.9-0.1,1.3-0.3c0.4-0.2,0.7-0.5,0.9-1.1
			c0.2-0.5,0.3-1.3,0.3-2.3v-1.3h2.3v1.1c0,1.7-0.4,3.1-1.1,4.2C460.8,460.7,459.6,461.2,457.7,461.2z M455,449.8h5.3v-1.6
			c0-1-0.1-1.9-0.2-2.6c-0.1-0.7-0.3-1.3-0.7-1.7c-0.4-0.4-0.9-0.6-1.7-0.6c-0.7,0-1.2,0.1-1.6,0.4s-0.7,0.8-0.9,1.5
			c-0.2,0.7-0.3,1.8-0.3,3.2V449.8z"/>
		<path d="M466,460.9v-19.1h2.2v1.9c0.6-0.7,1.3-1.3,2.1-1.7c0.8-0.4,1.6-0.6,2.4-0.6c0.7,0,1.3,0.2,1.8,0.5c0.6,0.4,1,1,1.2,2
			c0.6-0.8,1.4-1.5,2.2-1.9c0.8-0.4,1.6-0.6,2.5-0.6c0.5,0,1.1,0.1,1.6,0.4c0.5,0.3,0.9,0.7,1.2,1.4c0.3,0.6,0.5,1.5,0.5,2.6v15
			h-2.3v-15c0-1.1-0.2-1.9-0.5-2.2c-0.4-0.4-0.8-0.5-1.4-0.5c-0.6,0-1.2,0.2-1.8,0.5c-0.6,0.4-1.2,0.8-1.7,1.5c0,0.1,0,0.2,0,0.3
			c0,0.1,0,0.2,0,0.4v15h-2.2v-15c0-1.1-0.2-1.9-0.5-2.2c-0.4-0.4-0.8-0.5-1.4-0.5c-0.6,0-1.2,0.2-1.8,0.5c-0.6,0.4-1.2,0.8-1.7,1.4
			v15.8H466z"/>
	</g>
</g>
</svg>
